Coordinates
version=1
nRows=16
nColumns=40
inDegrees=yes

Units are S.I. units (second, meters, Newtons, ...)
If the header above contains a line with 'inDegrees', this indicates whether rotational values are in degrees (yes) or radians (no).

endheader
time	pelvis_tilt	pelvis_list	pelvis_rotation	pelvis_tx	pelvis_ty	pelvis_tz	hip_flexion_r	hip_adduction_r	hip_rotation_r	knee_angle_r	knee_angle_r_beta	ankle_angle_r	subtalar_angle_r	mtp_angle_r	hip_flexion_l	hip_adduction_l	hip_rotation_l	knee_angle_l	knee_angle_l_beta	ankle_angle_l	subtalar_angle_l	mtp_angle_l	lumbar_extension	lumbar_bending	lumbar_rotation	arm_flex_r	arm_add_r	arm_rot_r	elbow_flex_r	pro_sup_r	wrist_flex_r	wrist_dev_r	arm_flex_l	arm_add_l	arm_rot_l	elbow_flex_l	pro_sup_l	wrist_flex_l	wrist_dev_l
      4.25500000	     -1.60913246	     -1.58253627	      8.06620532	     -0.28618484	      1.33001088	     -0.84838830	     -1.85346490	    -10.32072045	     -9.32385662	     11.87662137	      0.20728615	    -14.11284259	      0.00000000	      0.00000000	      3.69908785	    -12.04269801	      3.26630794	     11.59907663	      0.20244208	    -20.71565709	      0.00000000	      0.00000000	     -8.69342512	     -1.79344985	     -2.31464000	    -45.47700594	    -48.42135088	     14.83620745	    112.15438742	     87.15339958	      0.00000000	      0.00000000	    -37.41703401	    -54.29793136	     36.20060905	    101.55113733	     88.02743894	      0.00000000	      0.00000000
      4.26000000	     -1.77443874	     -1.65175343	      8.23051305	     -0.28808630	      1.32033260	     -0.84824188	     -1.35245490	    -10.44878178	    -10.64564215	     12.29012162	      0.21450309	    -13.43330111	      0.00000000	      0.00000000	      4.29060153	    -12.11167018	      3.65215575	     11.94483738	      0.20847674	    -20.15740766	      0.00000000	      0.00000000	     -8.85742105	     -1.77915534	     -2.44748144	    -45.41353394	    -48.52111249	     14.83784578	    112.24342834	     87.31730548	      0.00000000	      0.00000000	    -37.83756057	    -54.08950076	     35.67042797	    101.61388044	     88.19246578	      0.00000000	      0.00000000
      4.26500000	     -1.94276009	     -1.78611704	      8.40629953	     -0.28985021	      1.31061867	     -0.84807254	     -0.93805389	    -10.47504905	    -11.79986283	     12.53678954	      0.21880826	    -12.71340265	      0.00000000	      0.00000000	      4.86528203	    -12.26634586	      3.81575300	     12.16225784	      0.21227144	    -19.60708842	      0.00000000	      0.00000000	     -9.00866296	     -1.71015669	     -2.54660342	    -45.22337116	    -48.55299091	     14.97682570	    112.24067714	     87.25556167	      0.00000000	      0.00000000	    -38.08506542	    -53.93110026	     35.36447573	    101.52326868	     88.20693769	      0.00000000	      0.00000000
      4.27000000	     -2.19608866	     -1.85928793	      8.63179085	     -0.29172200	      1.30040775	     -0.84805054	     -0.40717600	    -10.62520517	    -13.32699000	     12.86414428	      0.22452167	    -12.01342681	      0.00000000	      0.00000000	      5.57139652	    -12.32004435	      4.11313515	     12.47179775	      0.21767393	    -18.98113460	      0.00000000	      0.00000000	     -9.08873599	     -1.70042040	     -2.65194762	    -45.21761038	    -48.52528740	     14.94783389	    112.25336590	     87.32086568	      0.00000000	      0.00000000	    -38.37333626	    -53.80298921	     35.02756354	    101.50951371	     88.18937525	      0.00000000	      0.00000000
      4.27500000	     -2.40935767	     -1.96813917	      8.78845975	     -0.29348033	      1.29004147	     -0.84785313	      0.05265343	    -10.70901952	    -14.56980331	     13.12030805	      0.22899257	    -11.31072926	      0.00000000	      0.00000000	      6.15675355	    -12.43475088	      4.38892451	     12.64689359	      0.22072993	    -18.50015303	      0.00000000	      0.00000000	     -9.18788989	     -1.65902727	     -2.66327004	    -45.24328569	    -48.47909340	     14.92295173	    112.25379326	     87.17580040	      0.00000000	      0.00000000	    -38.45118185	    -53.74318310	     34.94296773	    101.47339872	     88.20445314	      0.00000000	      0.00000000
      4.28000000	     -2.53982276	     -2.10403915	      8.91921071	     -0.29545490	      1.27961510	     -0.84756454	      0.47990737	    -10.75847419	    -15.92263087	     13.40845076	      0.23402161	    -10.68313551	      0.00000000	      0.00000000	      6.74129200	    -12.61235863	      4.36090214	     12.93131808	      0.22569408	    -17.92087090	      0.00000000	      0.00000000	     -9.41204462	     -1.58343198	     -2.56705111	    -45.29529571	    -48.36673200	     14.79498730	    112.25415374	     87.25309212	      0.00000000	      0.00000000	    -38.38393476	    -53.71296296	     34.92724646	    101.44463128	     88.21149848	      0.00000000	      0.00000000
      4.28500000	     -2.77704456	     -2.19705428	      9.10415008	     -0.29746095	      1.26873854	     -0.84747910	      1.03644173	    -10.91700107	    -17.38349462	     13.80040636	      0.24086253	    -10.17075900	      0.00000000	      0.00000000	      7.46898458	    -12.70738948	      4.47445231	     13.25386607	      0.23132360	    -17.34123358	      0.00000000	      0.00000000	     -9.51140567	     -1.55860800	     -2.55783279	    -45.39125738	    -48.29533186	     14.68711151	    112.30441360	     87.28107266	      0.00000000	      0.00000000	    -38.31765919	    -53.69771765	     34.93831061	    101.36593320	     88.19112611	      0.00000000	      0.00000000
      4.29000000	     -2.91193533	     -2.25846060	      9.21662380	     -0.29942227	      1.25776628	     -0.84728810	      1.47143180	    -11.10260212	    -18.73178868	     14.16897262	      0.24729522	     -9.44147041	      0.00000000	      0.00000000	      8.01404205	    -12.80462818	      4.40578130	     13.51928473	      0.23595603	    -16.92159846	      0.00000000	      0.00000000	     -9.75472029	     -1.55550231	     -2.44656786	    -45.43916449	    -48.22011130	     14.63216614	    112.31054744	     87.26752115	      0.00000000	      0.00000000	    -38.24193149	    -53.73274894	     35.03127923	    101.32783929	     88.17615770	      0.00000000	      0.00000000
      4.29500000	     -3.09117256	     -2.43476069	      9.42205240	     -0.30147408	      1.24650241	     -0.84728928	      1.93189809	    -11.16504606	    -20.12155594	     14.46433453	      0.25245026	     -8.81266937	      0.00000000	      0.00000000	      8.74911350	    -12.99939462	      4.33295050	     13.89556468	      0.24252336	    -16.70827200	      0.00000000	      0.00000000	     -9.92989418	     -1.41878296	     -2.42880549	    -45.50517392	    -48.17433203	     14.54235627	    112.29255654	     87.29767699	      0.00000000	      0.00000000	    -38.11818246	    -53.68516338	     35.08468024	    101.20726818	     88.18770330	      0.00000000	      0.00000000
      4.30000000	     -3.30500207	     -2.48988558	      9.54304518	     -0.30357582	      1.23504933	     -0.84710403	      2.46283343	    -11.34919140	    -21.15616380	     14.86509655	      0.25944488	     -8.47229381	      0.00000000	      0.00000000	      9.43582370	    -13.09797122	      4.07793236	     14.15950143	      0.24712992	    -16.77734489	      0.00000000	      0.00000000	    -10.09881909	     -1.43824609	     -2.39557966	    -45.48562771	    -48.19468923	     14.65505250	    112.32079941	     87.10821114	      0.00000000	      0.00000000	    -38.12403428	    -53.64454670	     35.00647391	    101.12085699	     88.25896349	      0.00000000	      0.00000000
      4.30500000	     -3.41956793	     -2.65944173	      9.88620808	     -0.30557136	      1.22330812	     -0.84736767	      2.80496354	    -11.43070434	    -22.71130364	     15.19946466	      0.26528070	     -7.69218335	      0.00000000	      0.00000000	     10.16340236	    -13.29701658	      3.89889138	     14.55789965	      0.25408328	    -16.82275170	      0.00000000	      0.00000000	    -10.34459795	     -1.26830070	     -2.53872551	    -45.44945147	    -48.21522975	     14.60530544	    112.29857250	     87.21366277	      0.00000000	      0.00000000	    -38.05176639	    -53.59258978	     35.07264205	    100.99941815	     88.13117603	      0.00000000	      0.00000000
      4.31000000	     -3.58608123	     -2.71906680	      9.97241094	     -0.30776031	      1.21140065	     -0.84718675	      3.32025548	    -11.63555576	    -23.72668276	     15.66844815	      0.27346601	     -7.09250833	      0.00000000	      0.00000000	     10.85137308	    -13.41598707	      3.37809868	     14.93897408	      0.26073428	    -17.04202307	      0.00000000	      0.00000000	    -10.57922391	     -1.26991919	     -2.41625336	    -45.52009883	    -48.23250817	     14.60368700	    112.33410367	     87.44529022	      0.00000000	      0.00000000	    -37.96662298	    -53.61220570	     35.08408740	    100.99775788	     88.13619032	      0.00000000	      0.00000000
      4.31500000	     -3.68345474	     -2.84822318	     10.05494042	     -0.30992851	      1.19926207	     -0.84696904	      3.78506744	    -11.73897015	    -24.69879580	     16.15489134	      0.28195604	     -6.60479161	      0.00000000	      0.00000000	     11.48761158	    -13.62826940	      2.93838248	     15.41231734	      0.26899568	    -16.85147766	      0.00000000	      0.00000000	    -10.90329224	     -1.18200751	     -2.27793170	    -45.57319388	    -48.25109832	     14.55677270	    112.38136057	     87.40520646	      0.00000000	      0.00000000	    -37.87169765	    -53.57736885	     35.01027717	    100.93169648	     88.10030277	      0.00000000	      0.00000000
      4.32000000	     -3.80511604	     -2.97913765	     10.26491822	     -0.31216121	      1.18690674	     -0.84700689	      4.21931225	    -11.88051173	    -25.73754616	     16.57554542	      0.28929784	     -5.96874141	      0.00000000	      0.00000000	     12.16895888	    -13.78557106	      2.64185758	     15.75979739	      0.27506035	    -17.21575835	      0.00000000	      0.00000000	    -11.18270455	     -1.06452724	     -2.26383877	    -45.65672562	    -48.29962740	     14.49494152	    112.42442038	     87.46882334	      0.00000000	      0.00000000	    -37.71407434	    -53.58407181	     35.09107208	    100.87372625	     88.13318281	      0.00000000	      0.00000000
      4.32500000	     -3.88188130	     -3.03429837	     10.32997045	     -0.31428149	      1.17436678	     -0.84688174	      4.62955156	    -12.07198312	    -26.61471025	     16.99750052	      0.29666235	     -5.55719388	      0.00000000	      0.00000000	     12.61958611	    -13.87400071	      2.37004147	     15.90174104	      0.27753774	    -17.71798154	      0.00000000	      0.00000000	    -11.52525977	     -1.03340565	     -2.21904462	    -45.52300034	    -48.46425055	     14.65578995	    112.48934250	     87.30477013	      0.00000000	      0.00000000	    -37.82648387	    -53.47233810	     34.88540921	    100.80032726	     88.00349884	      0.00000000	      0.00000000
      4.33000000	     -3.99768243	     -3.15258743	     10.44486792	     -0.31670287	      1.16142371	     -0.84679642	      5.18406444	    -12.24196920	    -27.38308685	     17.66801411	      0.30836502	     -5.03231538	      0.00000000	      0.00000000	     13.36644736	    -14.03103672	      2.04004925	     16.52712990	      0.28845283	    -17.98763843	      0.00000000	      0.00000000	    -11.87239300	     -0.92990184	     -2.09299598	    -45.63437273	    -48.50319287	     14.59738445	    112.64537552	     87.47772343	      0.00000000	      0.00000000	    -37.71883641	    -53.47222398	     34.89051919	    100.77789191	     88.10255811	      0.00000000	      0.00000000
